<svg width="49" height="48" viewBox="0 0 49 48" fill="none" xmlns="http://www.w3.org/2000/svg">
<g filter="url(#filter0_ii_430_19612)">
<path d="M0.666687 10C0.666687 4.47715 5.14384 0 10.6667 0H38.6667C44.1895 0 48.6667 4.47715 48.6667 10V38C48.6667 43.5229 44.1895 48 38.6667 48H10.6667C5.14384 48 0.666687 43.5228 0.666687 38V10Z" fill="#0C0E12"/>
<path d="M1.16669 10C1.16669 4.75329 5.41998 0.5 10.6667 0.5H38.6667C43.9134 0.5 48.1667 4.75329 48.1667 10V38C48.1667 43.2467 43.9134 47.5 38.6667 47.5H10.6667C5.41998 47.5 1.16669 43.2467 1.16669 38V10Z" stroke="#373A41"/>
<path d="M18.7611 23.2288C18.6989 22.8282 18.6666 22.4179 18.6666 22C18.6666 17.5817 22.2719 14 26.7193 14C31.1666 14 34.7719 17.5817 34.7719 22C34.7719 22.9981 34.5879 23.9535 34.2518 24.8345C34.182 25.0175 34.1471 25.109 34.1313 25.1804C34.1156 25.2512 34.1095 25.301 34.1078 25.3735C34.1061 25.4466 34.116 25.5272 34.1359 25.6883L34.5384 28.9585C34.582 29.3125 34.6038 29.4895 34.5449 29.6182C34.4933 29.731 34.4017 29.8205 34.2878 29.8695C34.1578 29.9254 33.9813 29.8995 33.6284 29.8478L30.4431 29.3809C30.2768 29.3565 30.1937 29.3443 30.1179 29.3448C30.043 29.3452 29.9912 29.3507 29.9178 29.3661C29.8437 29.3817 29.749 29.4172 29.5597 29.4881C28.6764 29.819 27.7191 30 26.7193 30C26.3011 30 25.8903 29.9683 25.4893 29.9073M20.2983 34C23.2632 34 25.6667 31.5376 25.6667 28.5C25.6667 25.4624 23.2632 23 20.2983 23C17.3334 23 14.9298 25.4624 14.9298 28.5C14.9298 29.1106 15.027 29.6979 15.2062 30.2467C15.282 30.4787 15.3199 30.5947 15.3323 30.6739C15.3453 30.7567 15.3476 30.8031 15.3428 30.8867C15.3381 30.9668 15.3181 31.0573 15.278 31.2383L14.6667 34L17.6615 33.591C17.825 33.5687 17.9067 33.5575 17.9781 33.558C18.0532 33.5585 18.0931 33.5626 18.1668 33.5773C18.2368 33.5912 18.3408 33.6279 18.549 33.7014C19.0973 33.8949 19.6858 34 20.2983 34Z" stroke="#CECFD2" stroke-width="2" stroke-linecap="round" stroke-linejoin="round"/>
</g>
<defs>
<filter id="filter0_ii_430_19612" x="0.666687" y="0" width="48" height="48" filterUnits="userSpaceOnUse" color-interpolation-filters="sRGB">
<feFlood flood-opacity="0" result="BackgroundImageFix"/>
<feBlend mode="normal" in="SourceGraphic" in2="BackgroundImageFix" result="shape"/>
<feColorMatrix in="SourceAlpha" type="matrix" values="0 0 0 0 0 0 0 0 0 0 0 0 0 0 0 0 0 0 127 0" result="hardAlpha"/>
<feOffset dy="-2"/>
<feComposite in2="hardAlpha" operator="arithmetic" k2="-1" k3="1"/>
<feColorMatrix type="matrix" values="0 0 0 0 0.0470588 0 0 0 0 0.054902 0 0 0 0 0.0705882 0 0 0 0.05 0"/>
<feBlend mode="normal" in2="shape" result="effect1_innerShadow_430_19612"/>
<feColorMatrix in="SourceAlpha" type="matrix" values="0 0 0 0 0 0 0 0 0 0 0 0 0 0 0 0 0 0 127 0" result="hardAlpha"/>
<feMorphology radius="1" operator="erode" in="SourceAlpha" result="effect2_innerShadow_430_19612"/>
<feOffset/>
<feComposite in2="hardAlpha" operator="arithmetic" k2="-1" k3="1"/>
<feColorMatrix type="matrix" values="0 0 0 0 0.0470588 0 0 0 0 0.054902 0 0 0 0 0.0705882 0 0 0 0.18 0"/>
<feBlend mode="normal" in2="effect1_innerShadow_430_19612" result="effect2_innerShadow_430_19612"/>
</filter>
</defs>
</svg>
