<svg width="28" height="28" viewBox="0 0 28 28" fill="none" xmlns="http://www.w3.org/2000/svg">
<path d="M7.64368 9.823C8.78917 9.823 9.71777 8.89439 9.71777 7.7489C9.71777 6.60341 8.78917 5.6748 7.64368 5.6748C6.49818 5.6748 5.56958 6.60341 5.56958 7.7489C5.56958 8.89439 6.49818 9.823 7.64368 9.823Z" fill="#F4F9FF"/>
<path d="M11.6173 11.3558H15.0547V12.9306C15.0547 12.9306 15.9875 11.065 18.5255 11.065C20.7896 11.065 22.6651 12.1803 22.6651 15.5798V22.7485H19.1029V16.4485C19.1029 14.4431 18.0322 14.2225 17.2164 14.2225C15.5232 14.2225 15.2334 15.6829 15.2334 16.7101V22.7485H11.6173V11.3558Z" fill="#F4F9FF"/>
<path d="M5.83563 11.3558H9.45172V22.7484H5.83563V11.3558Z" fill="#F4F9FF"/>
</svg>
