<svg width="53" height="52" viewBox="0 0 53 52" fill="none" xmlns="http://www.w3.org/2000/svg">
<g filter="url(#filter0_dii_430_19128)">
<path d="M2.5 11C2.5 5.47715 6.97715 1 12.5 1H40.5C46.0229 1 50.5 5.47715 50.5 11V39C50.5 44.5229 46.0228 49 40.5 49H12.5C6.97715 49 2.5 44.5228 2.5 39V11Z" fill="white"/>
<path d="M3 11C3 5.75329 7.25329 1.5 12.5 1.5H40.5C45.7467 1.5 50 5.75329 50 11V39C50 44.2467 45.7467 48.5 40.5 48.5H12.5C7.25329 48.5 3 44.2467 3 39V11Z" stroke="#E9EAEB"/>
<path d="M23.4996 27C23.4996 27 24.8121 28.5 26.9996 28.5C29.1871 28.5 30.4996 27 30.4996 27M29.7496 22H29.7596M24.2496 22H24.2596M26.9996 33C31.694 33 35.4996 29.1944 35.4996 24.5C35.4996 19.8056 31.694 16 26.9996 16C22.3052 16 18.4996 19.8056 18.4996 24.5C18.4996 25.45 18.6555 26.3636 18.943 27.2166C19.0512 27.5376 19.1053 27.6981 19.1151 27.8214C19.1247 27.9432 19.1174 28.0286 19.0873 28.1469C19.0568 28.2668 18.9894 28.3915 18.8547 28.6408L17.2191 31.6684C16.9857 32.1002 16.8691 32.3161 16.8952 32.4828C16.9179 32.6279 17.0034 32.7557 17.1288 32.8322C17.2728 32.9201 17.5169 32.8948 18.0052 32.8444L23.1262 32.315C23.2813 32.299 23.3588 32.291 23.4295 32.2937C23.499 32.2963 23.5481 32.3029 23.6159 32.3185C23.6848 32.3344 23.7714 32.3678 23.9448 32.4345C24.8928 32.7998 25.9228 33 26.9996 33ZM30.2496 22C30.2496 22.2761 30.0258 22.5 29.7496 22.5C29.4735 22.5 29.2496 22.2761 29.2496 22C29.2496 21.7239 29.4735 21.5 29.7496 21.5C30.0258 21.5 30.2496 21.7239 30.2496 22ZM24.7496 22C24.7496 22.2761 24.5258 22.5 24.2496 22.5C23.9735 22.5 23.7496 22.2761 23.7496 22C23.7496 21.7239 23.9735 21.5 24.2496 21.5C24.5258 21.5 24.7496 21.7239 24.7496 22Z" stroke="#414651" stroke-width="2" stroke-linecap="round" stroke-linejoin="round"/>
</g>
<defs>
<filter id="filter0_dii_430_19128" x="0.5" y="0" width="52" height="52" filterUnits="userSpaceOnUse" color-interpolation-filters="sRGB">
<feFlood flood-opacity="0" result="BackgroundImageFix"/>
<feColorMatrix in="SourceAlpha" type="matrix" values="0 0 0 0 0 0 0 0 0 0 0 0 0 0 0 0 0 0 127 0" result="hardAlpha"/>
<feOffset dy="1"/>
<feGaussianBlur stdDeviation="1"/>
<feComposite in2="hardAlpha" operator="out"/>
<feColorMatrix type="matrix" values="0 0 0 0 0.0392157 0 0 0 0 0.0496732 0 0 0 0 0.0705882 0 0 0 0.05 0"/>
<feBlend mode="normal" in2="BackgroundImageFix" result="effect1_dropShadow_430_19128"/>
<feBlend mode="normal" in="SourceGraphic" in2="effect1_dropShadow_430_19128" result="shape"/>
<feColorMatrix in="SourceAlpha" type="matrix" values="0 0 0 0 0 0 0 0 0 0 0 0 0 0 0 0 0 0 127 0" result="hardAlpha"/>
<feOffset dy="-2"/>
<feComposite in2="hardAlpha" operator="arithmetic" k2="-1" k3="1"/>
<feColorMatrix type="matrix" values="0 0 0 0 0.0392157 0 0 0 0 0.0496732 0 0 0 0 0.0705882 0 0 0 0.05 0"/>
<feBlend mode="normal" in2="shape" result="effect2_innerShadow_430_19128"/>
<feColorMatrix in="SourceAlpha" type="matrix" values="0 0 0 0 0 0 0 0 0 0 0 0 0 0 0 0 0 0 127 0" result="hardAlpha"/>
<feMorphology radius="1" operator="erode" in="SourceAlpha" result="effect3_innerShadow_430_19128"/>
<feOffset/>
<feComposite in2="hardAlpha" operator="arithmetic" k2="-1" k3="1"/>
<feColorMatrix type="matrix" values="0 0 0 0 0.0392157 0 0 0 0 0.0496732 0 0 0 0 0.0705882 0 0 0 0.18 0"/>
<feBlend mode="normal" in2="effect2_innerShadow_430_19128" result="effect3_innerShadow_430_19128"/>
</filter>
</defs>
</svg>
